# This file uses centimeters as units for non-parametric coordinates.

mtllib background.mtl
g default
v -1.454560 5.151678 0.275735
v -0.820854 -5.151678 0.275735
v -1.454560 5.151678 -11.174528
v -0.820854 -5.151678 -11.174528
vt 0.000000 0.000000
vt 0.901536 0.000000
vt 0.000000 1.000000
vt 0.901536 1.000000
vn 0.998114 0.061389 0.000000
vn 0.998114 0.061389 0.000000
vn 0.998114 0.061389 0.000000
vn 0.998114 0.061389 0.000000
s 1
g pPlane1
usemtl initialShadingGroup
f 1/1/1 2/2/2 3/3/3
f 3/3/3 2/2/2 4/4/4
