# Blender v2.76 (sub 0) OBJ File: 'cross.blend'
# www.blender.org
mtllib cross.mtl
o Cube.004
v 0.499970 -1.500015 -0.501637
v 0.499980 -1.500026 0.498314
v -0.499980 -1.500026 0.498313
v -0.499969 -1.500015 -0.501637
v 0.500022 -0.500024 -0.501673
v 0.500022 -0.500024 0.498338
v 0.500022 0.500020 -0.496673
v 0.500022 0.500020 0.503337
v -0.500022 0.500020 0.503340
v -0.500022 0.500020 -0.496671
v 0.499970 1.500012 -0.496636
v 0.499980 1.500022 0.503314
v -0.499970 1.500012 0.503303
v -0.499980 1.500022 -0.496647
v -0.500022 -0.500024 -0.501675
v -1.500023 -0.499982 0.498313
v -1.500013 -0.499972 -0.501637
v -1.500014 0.499968 0.498303
v -1.500024 0.499979 -0.501647
v 1.500013 -0.499972 -0.501637
v 1.500024 -0.499982 0.498314
v 1.500013 0.499968 -0.501636
v 1.500024 0.499979 0.498314
v -0.500022 -0.500024 0.498334
vt 0.549998 0.450169
vt 0.450002 0.450169
vt 0.450003 0.550164
vt 0.550167 0.449998
vt 0.450166 0.449998
vt 0.450169 0.349997
vt 0.450002 0.549665
vt 0.450003 0.449670
vt 0.549998 0.449669
vt 0.549664 0.650001
vt 0.449669 0.650002
vt 0.449666 0.550002
vt 0.549998 0.650002
vt 0.450003 0.650001
vt 0.449998 0.550002
vt 0.549667 0.550002
vt 0.550002 0.550002
vt 0.450170 0.549997
vt 0.550165 0.549998
vt 0.449998 0.449998
vt 0.349999 0.450003
vt 0.349998 0.549998
vt 0.550002 0.449998
vt 0.450002 0.349997
vt 0.549997 0.349998
vt 0.349998 0.450169
vt 0.650002 0.450169
vt 0.550002 0.550167
vt 0.550164 0.349998
vt 0.549997 0.549664
vt 0.349999 0.550164
vt 0.650001 0.550164
vt 0.650002 0.450002
vt 0.650002 0.549998
vn 0.000000 -1.000000 -0.000000
vn 1.000000 -0.000000 0.000000
vn -0.000000 1.000000 0.000000
vn -0.000000 0.000000 1.000000
vn -1.000000 0.000000 0.000000
vn -0.000000 0.000000 -1.000000
vn 1.000000 -0.000100 -0.000000
vn 1.000000 0.000100 0.000000
vn -1.000000 0.000100 -0.000000
vn -1.000000 -0.000100 -0.000000
vn -0.000100 -1.000000 -0.000000
vn 0.000100 -1.000000 -0.000000
vn -0.000100 1.000000 0.000000
vn -0.005000 0.000000 1.000000
vn 0.005000 -0.005000 1.000000
vn 0.000000 0.005000 -1.000000
vn 0.000000 -0.005000 1.000000
vn 0.005000 0.005000 -1.000000
vn 0.000100 1.000000 -0.000000
vn -0.005000 0.000000 -1.000000
usemtl Material
s off
f 2/1/1 3/2/1 4/3/1
f 5/4/2 6/5/2 2/6/2
f 14/7/3 13/8/3 12/9/3
f 11/10/2 12/11/2 8/12/2
f 12/13/4 13/14/4 9/15/4
f 13/11/5 14/10/5 10/16/5
f 7/17/6 10/15/6 14/14/6
f 18/18/5 19/19/5 17/4/5
f 15/20/6 17/21/6 19/22/6
f 22/19/2 23/18/2 21/5/2
f 6/23/4 24/20/4 3/24/4
f 3/6/5 24/5/5 15/4/5
f 1/25/6 4/24/6 15/20/6
f 15/3/1 24/2/1 16/26/1
f 21/27/1 6/1/1 5/28/1
f 1/28/1 2/1/1 4/3/1
f 1/29/7 5/4/7 2/6/7
f 11/30/3 14/7/3 12/9/3
f 7/16/8 11/10/8 8/12/8
f 8/17/4 12/13/4 9/15/4
f 9/12/9 13/11/9 10/16/9
f 11/13/6 7/17/6 14/14/6
f 16/5/5 18/18/5 17/4/5
f 20/4/2 22/19/2 21/5/2
f 2/25/4 6/23/4 3/24/4
f 4/29/10 3/6/10 15/4/10
f 5/23/6 1/25/6 15/20/6
f 17/31/11 15/3/11 16/26/11
f 20/32/12 21/27/12 5/28/12
f 21/33/4 23/34/4 6/23/4
f 19/31/13 18/26/13 9/8/13
f 9/15/14 18/22/14 16/21/14
f 7/30/3 8/9/3 23/27/3
f 23/34/15 8/17/15 6/23/15
f 20/33/16 5/23/16 7/17/16
f 8/17/17 9/15/17 24/20/17
f 5/23/16 15/20/16 10/15/16
f 10/7/3 19/31/3 9/8/3
f 10/15/18 15/20/18 19/22/18
f 24/20/17 9/15/17 16/21/17
f 22/32/19 7/30/19 23/27/19
f 22/34/20 20/33/20 7/17/20
f 6/23/17 8/17/17 24/20/17
f 7/17/16 5/23/16 10/15/16
