# Blender v2.76 (sub 0) OBJ File: 'pyramid.blend'
# www.blender.org
mtllib pyramid.mtl
o Cube
v 5.946233 1.596787 -0.095866
v -2.827406 -2.027918 2.189103
v -2.827405 -2.027918 -2.308395
v -1.777104 1.426885 -0.052402
v 4.567988 -1.857635 -2.292769
v 1.847925 0.869013 0.160352
v 1.807048 0.984254 0.120155
v 0.161886 -0.155281 2.715243
v -0.573433 0.391340 3.105232
v 0.878894 -1.987512 -0.377093
v 1.608118 -0.280504 -1.153427
v -2.133540 -0.506751 -0.046438
v -2.302255 -0.300517 0.974889
v -2.302254 -0.300517 -1.086937
v 1.608117 -0.280504 1.095322
v 2.133268 1.317021 -0.025430
v -2.302255 -0.300517 -0.056024
v 6.262854 0.851807 -0.027083
v 1.588590 -0.423421 -0.101105
v 1.588590 -0.423421 0.061241
v 1.556120 -0.396888 0.320994
v 2.319818 1.452678 0.038020
v -0.695057 0.660187 0.140688
vt 0.727498 0.000000
vt 0.738173 0.392047
vt 0.643821 0.299816
vt 0.738173 0.789314
vt 0.635185 0.693330
vt 0.532197 0.396122
vt 0.429154 0.095713
vt 0.532197 0.000000
vt 0.326111 0.191425
vt 1.000000 0.817876
vt 0.869087 0.818170
vt 0.869087 0.668390
vt 0.520163 0.790662
vt 0.437799 0.488089
vt 0.532197 0.597346
vt 0.869087 0.967949
vt 1.000000 0.635753
vt 1.000000 1.000000
vt 0.738174 0.818463
vn -0.058100 0.588500 -0.806400
vn -0.016800 0.580700 -0.814000
vn -0.028000 0.580500 0.813800
vn -0.029000 0.517400 0.855200
vn -0.774000 -0.633200 -0.000000
vn -0.027500 0.580100 0.814000
vn -0.017200 0.517600 -0.855500
vn 0.010400 0.572000 0.820200
vn -0.968700 0.160900 0.189000
vn 0.021700 0.571900 -0.820000
vn -0.968300 0.159300 -0.192100
vn -0.956800 0.290900 -0.000000
usemtl Material
s off
f 1/1/1 11/2/1 16/3/1
f 11/2/2 3/4/2 14/5/2
f 15/6/3 13/7/3 2/8/3
f 4/9/4 13/7/4 15/6/4
f 12/10/5 17/11/5 14/12/5
f 1/13/6 16/14/6 15/6/6
f 11/2/7 14/5/7 4/15/7
f 13/16/5 17/11/5 12/10/5
f 16/14/8 4/9/8 15/6/8
f 3/17/9 12/10/9 14/12/9
f 16/3/10 11/2/10 4/15/10
f 2/18/11 13/16/11 12/10/11
f 14/12/12 17/11/12 4/19/12
f 17/11/12 13/16/12 4/19/12
