# This file uses centimeters as units for non-parametric coordinates.

mtllib star.mtl
g default
v -0.002613 0.006032 0.325978
v -0.001633 0.003828 -0.185344
v 0.297194 0.420241 0.324766
v 0.298174 0.418036 -0.186555
v -0.004447 1.028674 0.321565
v -0.003468 1.026470 -0.189755
v -0.303904 0.419158 0.323620
v -0.302925 0.416954 -0.187701
v -0.975778 0.320293 0.322759
v -0.974799 0.318090 -0.188562
v -0.488628 -0.152852 0.325732
v -0.487649 -0.155056 -0.185590
v -0.602228 -0.822386 0.328399
v -0.601248 -0.824591 -0.182921
v -0.001696 -0.505289 0.328183
v -0.000717 -0.507494 -0.183138
v 0.599970 -0.820220 0.330693
v 0.600948 -0.822424 -0.180628
v 0.483970 -0.151099 0.327587
v 0.484949 -0.153303 -0.183734
v 0.969418 0.323797 0.326469
v 0.970397 0.321594 -0.184852
vt 0.165279 0.149769
vt 0.239195 0.251504
vt 0.000000 0.173785
vt 0.239195 0.000000
vt 0.313110 0.149769
vt 0.478389 0.173785
vt 0.358792 0.290364
vt 0.387025 0.454975
vt 0.239195 0.377256
vt 0.091364 0.454975
vt 0.119597 0.290364
vt 0.636940 0.584657
vt 0.574099 0.487519
vt 0.703111 0.404058
vt 0.765952 0.501195
vt 0.507928 0.668118
vt 0.445087 0.570980
vt 0.378916 0.751580
vt 0.316075 0.654442
vt 0.249903 0.835041
vt 0.187062 0.737903
vt 0.120891 0.918503
vt 0.058049 0.821364
vt 0.515078 0.828906
vt 0.460077 0.743886
vt 0.572994 0.670837
vt 0.627995 0.755857
vt 0.685911 0.597788
vt 0.740912 0.682808
vt 0.798828 0.524739
vt 0.853829 0.609759
vt 0.911745 0.451691
vt 0.966747 0.536710
vt 0.832123 0.320596
vt 0.894964 0.417734
vt 0.238273 0.252876
vt 0.238814 0.375826
vt 0.094612 0.452449
vt 0.383684 0.451177
vt 0.355372 0.290355
vt 0.471803 0.175860
vt 0.310103 0.153089
vt 0.237191 0.006976
vt 0.165567 0.153725
vt 0.004074 0.177918
vt 0.121508 0.291384
vn -0.001915 0.004312 0.999989
vn -0.001915 0.004312 0.999989
vn -0.001915 0.004312 0.999989
vn -0.001915 0.004311 0.999989
vn -0.001915 0.004311 0.999989
vn -0.001915 0.004311 0.999989
vn -0.001915 0.004311 0.999989
vn -0.001915 0.004312 0.999989
vn -0.001915 0.004311 0.999989
vn -0.001915 0.004311 0.999989
vn -0.001915 0.004311 0.999989
vn -0.001915 0.004311 0.999989
vn -0.001915 0.004312 0.999989
vn -0.001915 0.004312 0.999989
vn -0.001915 0.004312 0.999989
vn -0.001914 0.004309 0.999989
vn -0.001914 0.004309 0.999989
vn -0.001914 0.004309 0.999989
vn -0.001915 0.004309 0.999989
vn -0.001915 0.004309 0.999989
vn -0.001915 0.004309 0.999989
vn -0.001916 0.004309 0.999989
vn -0.001916 0.004309 0.999989
vn -0.001916 0.004309 0.999989
vn -0.001915 0.004311 0.999989
vn -0.001915 0.004311 0.999989
vn -0.001915 0.004311 0.999989
vn -0.001915 0.004311 0.999989
vn -0.001915 0.004311 0.999989
vn -0.001915 0.004311 0.999989
vn 0.142023 0.989855 -0.003997
vn 0.142024 0.989855 -0.003996
vn 0.142024 0.989855 -0.003995
vn 0.142025 0.989855 -0.003994
vn 0.895939 0.444177 -0.000199
vn 0.895939 0.444177 -0.000199
vn 0.895939 0.444176 -0.000199
vn 0.895939 0.444176 -0.000199
vn -0.897527 0.440945 -0.003620
vn -0.897527 0.440945 -0.003620
vn -0.897527 0.440945 -0.003620
vn -0.897527 0.440946 -0.003619
vn -0.145573 0.989337 -0.004543
vn -0.145573 0.989337 -0.004543
vn -0.145573 0.989337 -0.004543
vn -0.145573 0.989337 -0.004542
vn -0.696724 -0.717337 0.001757
vn -0.696725 -0.717337 0.001757
vn -0.696725 -0.717337 0.001758
vn -0.696725 -0.717336 0.001758
vn -0.985908 0.167268 -0.002609
vn -0.985908 0.167268 -0.002610
vn -0.985908 0.167268 -0.002610
vn -0.985908 0.167268 -0.002610
vn 0.466928 -0.884283 0.004707
vn 0.466927 -0.884283 0.004707
vn 0.466927 -0.884283 0.004707
vn 0.466927 -0.884283 0.004708
vn -0.463752 -0.885960 0.002932
vn -0.463752 -0.885960 0.002932
vn -0.463752 -0.885960 0.002932
vn -0.463751 -0.885961 0.002931
vn 0.985302 0.170820 0.001149
vn 0.985302 0.170819 0.001150
vn 0.985302 0.170819 0.001150
vn 0.985302 0.170818 0.001151
vn 0.699293 -0.714821 0.004420
vn 0.699293 -0.714821 0.004420
vn 0.699293 -0.714821 0.004420
vn 0.699293 -0.714821 0.004420
vn 0.001915 -0.004310 -0.999989
vn 0.001915 -0.004310 -0.999989
vn 0.001915 -0.004310 -0.999989
vn 0.001915 -0.004310 -0.999989
vn 0.001915 -0.004310 -0.999989
vn 0.001915 -0.004310 -0.999989
vn 0.001914 -0.004310 -0.999989
vn 0.001914 -0.004310 -0.999989
vn 0.001914 -0.004310 -0.999989
vn 0.001915 -0.004309 -0.999989
vn 0.001915 -0.004309 -0.999989
vn 0.001915 -0.004309 -0.999989
vn 0.001915 -0.004310 -0.999989
vn 0.001915 -0.004310 -0.999989
vn 0.001915 -0.004310 -0.999989
vn 0.001915 -0.004311 -0.999989
vn 0.001915 -0.004311 -0.999989
vn 0.001915 -0.004311 -0.999989
vn 0.001915 -0.004311 -0.999989
vn 0.001915 -0.004311 -0.999989
vn 0.001915 -0.004311 -0.999989
vn 0.001916 -0.004311 -0.999989
vn 0.001916 -0.004311 -0.999989
vn 0.001916 -0.004311 -0.999989
vn 0.001916 -0.004310 -0.999989
vn 0.001916 -0.004310 -0.999989
vn 0.001916 -0.004310 -0.999989
vn 0.001916 -0.004312 -0.999989
vn 0.001916 -0.004312 -0.999989
vn 0.001916 -0.004312 -0.999989
s off
g star:Mesh
usemtl initialShadingGroup
f 3/1/1 1/2/2 21/3/3
f 1/2/4 3/1/5 5/4/6
f 1/2/7 5/4/8 7/5/9
f 1/2/10 7/5/11 9/6/12
f 1/2/13 9/6/14 11/7/15
f 1/2/16 11/7/17 13/8/18
f 1/2/19 13/8/20 15/9/21
f 1/2/22 15/9/23 17/10/24
f 1/2/25 17/10/26 19/11/27
f 1/2/28 19/11/29 21/3/30
s 1
f 4/12/31 3/13/32 22/15/33
f 22/15/33 3/13/32 21/14/34
s 2
f 3/13/35 4/12/36 5/17/37
f 5/17/37 4/12/36 6/16/38
s 3
f 5/17/39 6/16/40 7/19/41
f 7/19/41 6/16/40 8/18/42
s 4
f 7/19/43 8/18/44 9/21/45
f 9/21/45 8/18/44 10/20/46
s 5
f 9/21/47 10/20/48 11/23/49
f 11/23/49 10/20/48 12/22/50
s 6
f 11/24/51 12/25/52 13/27/53
f 13/27/53 12/25/52 14/26/54
s 7
f 13/27/55 14/26/56 15/29/57
f 15/29/57 14/26/56 16/28/58
s 8
f 15/29/59 16/28/60 17/31/61
f 17/31/61 16/28/60 18/30/62
s 9
f 17/31/63 18/30/64 19/33/65
f 19/33/65 18/30/64 20/32/66
s 10
f 19/34/67 20/35/68 21/14/69
f 21/14/69 20/35/68 22/15/70
s off
f 2/36/71 4/37/72 22/38/73
f 4/37/74 2/36/75 6/39/76
f 6/39/77 2/36/78 8/40/79
f 8/40/80 2/36/81 10/41/82
f 10/41/83 2/36/84 12/42/85
f 12/42/86 2/36/87 14/43/88
f 14/43/89 2/36/90 16/44/91
f 16/44/92 2/36/93 18/45/94
f 18/45/95 2/36/96 20/46/97
f 20/46/98 2/36/99 22/38/100
